<svg xmlns="http://www.w3.org/2000/svg" viewBox="0 0 162.08 42.01"><defs><style>.cls-1{fill:#fff;}</style></defs><title>Asset 32</title><g id="Layer_2" data-name="Layer 2"><g id="Layer_1-2" data-name="Layer 1"><path class="cls-1" d="M46.78.18h7.6v2.3h-5V5.07h4.28V7.25H49.41v4.92H46.78Z"/><path class="cls-1" d="M59,.18H61.5l4.87,12H63.56l-1-2.52H57.76l-1,2.52h-2.7Zm-.38,7.4H61.8l-.5-1.34c-.34-.94-.77-2.13-1.09-3h0c-.31.91-.75,2.1-1.13,3.11Z"/><path class="cls-1" d="M76.46,11.56a7.78,7.78,0,0,1-3.51.79c-3.86,0-6.53-2.66-6.53-6.16A6.18,6.18,0,0,1,73,0a7.54,7.54,0,0,1,3.32.75V3.41a6,6,0,0,0-3.31-1,3.71,3.71,0,0,0-3.9,3.79,3.75,3.75,0,0,0,4,3.82,6,6,0,0,0,3.4-1.11Z"/><path class="cls-1" d="M78.22.18h2.63v12H78.22Z"/><path class="cls-1" d="M86.86.18h2.55l4.87,12H91.46l-1-2.52H85.67l-1,2.52H82Zm-.38,7.4h3.23l-.5-1.34c-.35-.94-.78-2.13-1.09-3h0c-.32.91-.75,2.1-1.13,3.11Z"/><path class="cls-1" d="M95.42.18h2.63V9.87h5.25v2.3H95.42Z"/><path class="cls-1" d="M46.78,14h3.76a7.33,7.33,0,0,1,3.73.79,3.1,3.1,0,0,1,1.44,2.82,3.33,3.33,0,0,1-2.44,3.31L56.65,26h-3l-3-4.73H49.41V26H46.78Zm4,5.28A3.71,3.71,0,0,0,52.39,19a1.24,1.24,0,0,0,.68-1.21,1.18,1.18,0,0,0-.68-1.18,4.54,4.54,0,0,0-2-.31h-1v3Z"/><path class="cls-1" d="M57.6,14H65v2.3H60.23v2.35h4.11v2.19H60.23v2.84h5V26H57.6Z"/><path class="cls-1" d="M76.41,25.35a7.66,7.66,0,0,1-3.51.8c-3.86,0-6.53-2.67-6.53-6.16A6.18,6.18,0,0,1,72.9,13.8a7.68,7.68,0,0,1,3.32.74v2.67a6,6,0,0,0-3.31-1.05,3.81,3.81,0,1,0,.1,7.62,6,6,0,0,0,3.4-1.11Z"/><path class="cls-1" d="M77.64,20a6.26,6.26,0,1,1,6.25,6.18A6.1,6.1,0,0,1,77.64,20Zm9.88,0a3.63,3.63,0,1,0-7.25,0,3.63,3.63,0,1,0,7.25,0Z"/><path class="cls-1" d="M101.91,25.15a8.68,8.68,0,0,1-4.07,1c-3.84,0-6.54-2.6-6.54-6.13a6.21,6.21,0,0,1,6.56-6.22,7.58,7.58,0,0,1,3.67.91v2.65a6.56,6.56,0,0,0-3.62-1.2,3.85,3.85,0,1,0,0,7.69,3.89,3.89,0,0,0,1.47-.27v-1.8H97.28V19.59h4.63Z"/><path class="cls-1" d="M108.79,21.13c-.78-1-1.51-2.05-2.25-3.1l0,0c0,1.14,0,2.3,0,3.46V26H104V14h2.49l3.59,4.83c.78,1.05,1.5,2.06,2.25,3.1l0,0c0-1.14,0-2.3,0-3.46V14h2.53V26h-2.48Z"/><path class="cls-1" d="M117.05,14h2.63V26h-2.63Z"/><path class="cls-1" d="M124.9,16.28H121V14h10.38v2.3h-3.88V26H124.9Z"/><path class="cls-1" d="M132.75,14h2.63V26h-2.63Z"/><path class="cls-1" d="M137,20a6.26,6.26,0,1,1,6.26,6.18A6.1,6.1,0,0,1,137,20Zm9.89,0a3.63,3.63,0,1,0-7.26,0,3.63,3.63,0,1,0,7.26,0Z"/><path class="cls-1" d="M156,21.13c-.77-1-1.5-2.05-2.25-3.1l0,0c0,1.14,0,2.3,0,3.46V26h-2.53V14h2.48l3.6,4.83c.77,1.05,1.5,2.06,2.25,3.1l0,0c0-1.14,0-2.3,0-3.46V14h2.53V26H159.6Z"/><path class="cls-1" d="M46.63,36.4a7.59,7.59,0,0,0,3.83,1.24c1,0,1.67-.38,1.67-1.27,0-1.11-1.13-1.21-2.67-1.71s-3.14-1.36-3.14-3.44c0-2.24,1.69-3.63,4.2-3.63a8.27,8.27,0,0,1,3.66.86v2.6a7.65,7.65,0,0,0-3.67-1.16c-.9,0-1.54.33-1.54,1.13,0,1.06,1.11,1.14,2.55,1.62,1.8.6,3.26,1.44,3.26,3.56,0,2.34-1.77,3.74-4.36,3.74a8.82,8.82,0,0,1-3.79-.87Z"/><path class="cls-1" d="M59.63,34.35,55,27.77h3.07l1.45,2.17c.47.68,1,1.48,1.44,2.21h0c.46-.73.94-1.48,1.44-2.22l1.44-2.16h3l-4.59,6.56v5.43H59.63Z"/><path class="cls-1" d="M67.47,36.4a7.56,7.56,0,0,0,3.82,1.24c1,0,1.67-.38,1.67-1.27,0-1.11-1.12-1.21-2.66-1.71s-3.15-1.36-3.15-3.44c0-2.24,1.69-3.63,4.21-3.63a8.34,8.34,0,0,1,3.66.86v2.6a7.69,7.69,0,0,0-3.68-1.16c-.89,0-1.54.33-1.54,1.13,0,1.06,1.11,1.14,2.55,1.62,1.81.6,3.26,1.44,3.26,3.56,0,2.34-1.77,3.74-4.35,3.74a8.78,8.78,0,0,1-3.79-.87Z"/><path class="cls-1" d="M80.18,30.08H76.31V27.77H86.69v2.31H82.82v9.68H80.18Z"/><path class="cls-1" d="M88,27.77h7.4v2.31H90.67v2.35h4.1v2.18h-4.1v2.85h5v2.3H88Z"/><path class="cls-1" d="M101.62,34.53c-.6-.85-1.2-1.72-1.76-2.57l0,0c0,.86,0,2,0,3v4.8H97.33v-12h2.53l3.56,5.07L107,27.77h2.5v12h-2.63V35c0-1,0-2.12,0-3l0,0c-.57.85-1.16,1.72-1.76,2.57L103.35,37Z"/><path class="cls-1" d="M29.35,13.56a1.61,1.61,0,0,0-.92.28L26.19,11.3A1.67,1.67,0,1,0,23.26,10H17a1.67,1.67,0,0,0-3.33.23,1.63,1.63,0,0,0,.4,1.08l-2.24,2.54a1.61,1.61,0,0,0-.92-.28,1.67,1.67,0,0,0,0,3.34h.12l2.63,11.93a1.67,1.67,0,0,0,.59,3.23,1.63,1.63,0,0,0,.9-.26l3.71,4.36a1.67,1.67,0,1,0,2.93,1.1,1.63,1.63,0,0,0-.42-1.1l3.72-4.36a1.63,1.63,0,0,0,.9.26,1.67,1.67,0,0,0,.58-3.23L29.22,16.9h.13a1.67,1.67,0,0,0,0-3.34Zm-5,16.83a1.65,1.65,0,0,0,.42,1.1L21,35.85a1.65,1.65,0,0,0-1.78,0l-3.72-4.36A1.68,1.68,0,0,0,15.24,29l2.16-4.2a1.61,1.61,0,0,0,.54.09,1.66,1.66,0,0,0,1.65-1.43h1a1.67,1.67,0,0,0,1.65,1.43,1.8,1.8,0,0,0,.62-.11L25,29A1.66,1.66,0,0,0,24.33,30.39ZM20.6,23h-1a1.66,1.66,0,0,0-.68-1.12l.69-1.34a1.67,1.67,0,0,0,1.08,0l.67,1.3A1.64,1.64,0,0,0,20.6,23Zm-8.39-8.86,2.24-2.53a1.66,1.66,0,0,0,2.29-.44l1.81.91a1.77,1.77,0,0,0-.08.52,1.66,1.66,0,0,0,1.43,1.65v3.06a1.67,1.67,0,0,0-1.2.8l-6.15-2.49a1.75,1.75,0,0,0,0-.4A1.7,1.7,0,0,0,12.21,14.15Zm11.12-3.4-1.82.91a1.66,1.66,0,0,0-2.74,0L17,10.75a2.46,2.46,0,0,0,.07-.29h6.24A1.37,1.37,0,0,0,23.33,10.75Zm-2.95,6.57V14.26a1.66,1.66,0,0,0,1.43-1.65,1.5,1.5,0,0,0-.09-.52l1.82-.91a1.67,1.67,0,0,0,1.37.72,1.69,1.69,0,0,0,.92-.28l2.24,2.53a1.7,1.7,0,0,0-.39,1.08,1.33,1.33,0,0,0,.05.4l-6.15,2.49A1.67,1.67,0,0,0,20.38,17.32Zm-8.86-.53a1.63,1.63,0,0,0,.85-.72l6.15,2.5a1.75,1.75,0,0,0-.05.4,1.68,1.68,0,0,0,.7,1.36l-.69,1.34a1.61,1.61,0,0,0-.54-.09,1.67,1.67,0,0,0-1,3l-2.15,4.2a1.67,1.67,0,0,0-.55-.09h-.12ZM26.13,28.73H26a1.67,1.67,0,0,0-.55.09l-2.18-4.24a1.67,1.67,0,0,0-1-3,1.84,1.84,0,0,0-.47.07l-.67-1.32a1.68,1.68,0,0,0,.7-1.36,1.75,1.75,0,0,0,0-.4l6.15-2.5a1.63,1.63,0,0,0,.85.72Z"/><path class="cls-1" d="M35.72,14.64h-.1C33.47,6.06,27.16.13,20.08.13S6.69,6.06,4.54,14.64C2.05,14.58,0,17.08,0,20.16c0,2.92,1.84,5.32,4.15,5.51C5.81,35.18,12.42,42,20.08,42S34.35,35.18,36,25.67c2.32-.19,4.15-2.59,4.15-5.51S38.17,14.64,35.72,14.64Zm0,9.37-.3,0-.82-.13-.13.83c-1.31,9.07-7.36,15.65-14.39,15.65S7,33.76,5.69,24.69l-.12-.83L4.74,24l-.29,0c-1.53,0-2.78-1.73-2.78-3.85s1.25-3.85,2.78-3.85a1.79,1.79,0,0,1,.51.07l.85.23L6,15.75C7.79,7.54,13.58,1.8,20.08,1.8s12.29,5.74,14.09,14l.18.86.85-.23a1.81,1.81,0,0,1,.52-.07c1.53,0,2.77,1.73,2.77,3.85S37.25,24,35.72,24Z"/></g></g></svg>