<svg xmlns="http://www.w3.org/2000/svg" viewBox="0 0 314.3 13.13"><defs><style>.cls-1{fill:#fff;}</style></defs><title>Asset 33</title><g id="Layer_2" data-name="Layer 2"><g id="Layer_1-2" data-name="Layer 1"><path class="cls-1" d="M5,.38a4.85,4.85,0,0,1,5,4.93A4.84,4.84,0,0,1,5,10.23,4.84,4.84,0,0,1,0,5.31,4.84,4.84,0,0,1,5,.38ZM5,9.44a4,4,0,0,0,4.1-4.13A4,4,0,0,0,5,1.17,4,4,0,0,0,.84,5.31,4,4,0,0,0,5,9.44ZM6.81,7.5a3.34,3.34,0,0,1-1.7.43,2.69,2.69,0,1,1,0-5.38A3.13,3.13,0,0,1,6.75,3V4.24a2.8,2.8,0,0,0-1.5-.5,1.5,1.5,0,1,0,0,3,2.7,2.7,0,0,0,1.54-.51Z"/><path class="cls-1" d="M21.81,9.6a6.21,6.21,0,0,1-2.8.63A4.93,4.93,0,1,1,19,.38a6.16,6.16,0,0,1,2.66.6V3.1A4.92,4.92,0,0,0,19,2.27a3,3,0,0,0-3.12,3,3,3,0,0,0,3.2,3.05,4.8,4.8,0,0,0,2.7-.88Z"/><path class="cls-1" d="M26.38,3.45A3.43,3.43,0,0,1,30,6.84a3.44,3.44,0,0,1-3.62,3.39,3.43,3.43,0,0,1-3.61-3.39A3.43,3.43,0,0,1,26.38,3.45Zm0,5.05A1.62,1.62,0,0,0,28,6.84a1.61,1.61,0,1,0-3.22,0A1.62,1.62,0,0,0,26.38,8.5Z"/><path class="cls-1" d="M33.26,13h-2V3.59h2v.33h0a2.79,2.79,0,0,1,1.61-.48,3.13,3.13,0,0,1,3.08,3.33,3.3,3.3,0,0,1-3.4,3.45A3,3,0,0,1,33.29,10h0Zm1-4.38a1.58,1.58,0,0,0,1.63-1.72,1.6,1.6,0,0,0-1.57-1.77,1.9,1.9,0,0,0-1.09.36V8.35A2.17,2.17,0,0,0,34.29,8.61Z"/><path class="cls-1" d="M39.11,13l1.71-3.62L38.18,3.59h2.11L41,5.2c.29.7.57,1.39.83,2.06h0c.29-.71.58-1.4.88-2.1l.69-1.57h2L41.16,13Z"/><path class="cls-1" d="M46.3,3.59h2v.87h0a2.2,2.2,0,0,1,1.89-1,1.55,1.55,0,0,1,.42.05V5.45a2.35,2.35,0,0,0-.54-.07,2.19,2.19,0,0,0-1.76.77v3.93h-2Z"/><path class="cls-1" d="M52.6.38a1.17,1.17,0,0,1,1.16,1.15,1.17,1.17,0,0,1-2.33,0A1.17,1.17,0,0,1,52.6.38Zm-1,3.21h2v6.49h-2Z"/><path class="cls-1" d="M55.79,10.76a4.11,4.11,0,0,0,2.1.66A1.38,1.38,0,0,0,59.47,10V9.6l0,0a2.72,2.72,0,0,1-1.52.44,3,3,0,0,1-3-3.18,3.28,3.28,0,0,1,3.38-3.39,3.72,3.72,0,0,1,1.62.36l1.57-.27V10c0,2.05-1.4,3.18-3.47,3.18a5.43,5.43,0,0,1-2.22-.47Zm3.68-5.38a2.29,2.29,0,0,0-1-.23,1.49,1.49,0,0,0-1.54,1.61,1.48,1.48,0,0,0,1.52,1.62,1.92,1.92,0,0,0,1-.28Z"/><path class="cls-1" d="M63.17,0h2V4.17h0a3.13,3.13,0,0,1,2-.73,2.35,2.35,0,0,1,1.7.65A2.61,2.61,0,0,1,69.46,6v4.05h-2V6.36a1.34,1.34,0,0,0-.22-.91.87.87,0,0,0-.69-.28,2.39,2.39,0,0,0-1.36.54v4.37h-2Z"/><path class="cls-1" d="M75.31,9.87a3,3,0,0,1-1.47.36,2.28,2.28,0,0,1-1.69-.65,2.66,2.66,0,0,1-.56-1.94V5.25H70.53V3.59h1.06V1.9l2-.34v2h1.72V5.25H73.59V7.43c0,.63.15,1.11.75,1.11a2.41,2.41,0,0,0,1-.26Z"/><path class="cls-1" d="M82,6.2c1-1.26,1.43-2,1.43-2.69S82.8,2.26,82,2.26a3.78,3.78,0,0,0-2.23.86v-2A4.08,4.08,0,0,1,82.15.38c1.89,0,3.35,1.15,3.35,3A5.76,5.76,0,0,1,84,6.71L82.85,8.22v0h3v1.83H79.05l0,0Z"/><path class="cls-1" d="M88,8.94a6.05,6.05,0,0,1-.87-3.63A6,6,0,0,1,88,1.68a3.33,3.33,0,0,1,5.28,0,6,6,0,0,1,.87,3.63,6.05,6.05,0,0,1-.87,3.63,3.35,3.35,0,0,1-5.28,0Zm3.6-1.1a4.56,4.56,0,0,0,.45-2.55,4.59,4.59,0,0,0-.45-2.52,1.14,1.14,0,0,0-1-.51,1.18,1.18,0,0,0-1,.51,4.83,4.83,0,0,0-.44,2.55,4.65,4.65,0,0,0,.44,2.52,1.21,1.21,0,0,0,1,.51A1.16,1.16,0,0,0,91.6,7.84Z"/><path class="cls-1" d="M97.58,3.05l-1.93.7V1.85l4-1.47v9.7h-2.1Z"/><path class="cls-1" d="M107.86,5a2.4,2.4,0,0,1,1.61,2.31c0,1.71-1.53,2.89-3.61,2.89s-3.6-1.18-3.6-2.89A2.4,2.4,0,0,1,103.87,5V5a2,2,0,0,1-1.31-1.95c0-1.53,1.44-2.67,3.3-2.67s3.3,1.14,3.3,2.67a2,2,0,0,1-1.3,2Zm-.54,2.16a1.46,1.46,0,0,0-2.91,0,1.46,1.46,0,0,0,2.91,0Zm-.19-4a1.27,1.27,0,0,0-2.53,0,1.27,1.27,0,0,0,2.53,0Z"/><path class="cls-1" d="M111.27,8.06h1.83l-1.19,4h-1.38Z"/><path class="cls-1" d="M125.6,9.6a6.14,6.14,0,0,1-2.79.63,4.93,4.93,0,1,1,0-9.85,6.11,6.11,0,0,1,2.65.6V3.1a4.89,4.89,0,0,0-2.64-.83,3,3,0,0,0-3.12,3,3,3,0,0,0,3.2,3.05,4.78,4.78,0,0,0,2.7-.88Z"/><path class="cls-1" d="M127,3.59h2v.87h0a2.2,2.2,0,0,1,1.89-1,1.55,1.55,0,0,1,.42.05V5.45a2.28,2.28,0,0,0-.54-.07,2.19,2.19,0,0,0-1.76.77v3.93h-2Z"/><path class="cls-1" d="M133.85,7.37a1.76,1.76,0,0,0,1.89,1.3,4.06,4.06,0,0,0,2.2-.71V9.63a4.94,4.94,0,0,1-2.47.6,3.37,3.37,0,0,1-3.68-3.37,3.34,3.34,0,0,1,3.4-3.41,3,3,0,0,1,3.11,3.23c0,.22,0,.51,0,.69Zm2.6-1.27A1.27,1.27,0,0,0,135.17,5a1.35,1.35,0,0,0-1.34,1.12Z"/><path class="cls-1" d="M143.26,9.69a3.19,3.19,0,0,1-1.81.54,2.63,2.63,0,0,1-1.5-.42,1.77,1.77,0,0,1-.77-1.52,1.84,1.84,0,0,1,.8-1.57,3.21,3.21,0,0,1,1.82-.46,5.19,5.19,0,0,1,1.12.12V6.12a.93.93,0,0,0-.25-.68,1.51,1.51,0,0,0-1-.28,4.07,4.07,0,0,0-1.91.52V4a5.09,5.09,0,0,1,2.27-.5,3.39,3.39,0,0,1,2.17.62,2.12,2.12,0,0,1,.72,1.79v2.2c0,.31.12.52.4.52a.76.76,0,0,0,.33-.08V10a2.14,2.14,0,0,1-1,.2,1.88,1.88,0,0,1-1.4-.51Zm-.34-2.15a2.48,2.48,0,0,0-.71-.1c-.52,0-1,.16-1,.66s.37.65.83.65a1.87,1.87,0,0,0,.91-.26Z"/><path class="cls-1" d="M150.91,9.87a3,3,0,0,1-1.47.36,2.28,2.28,0,0,1-1.69-.65,2.66,2.66,0,0,1-.56-1.94V5.25h-1.06V3.59h1.06V1.9l2-.34v2h1.72V5.25h-1.72V7.43c0,.63.15,1.11.75,1.11a2.41,2.41,0,0,0,1-.26Z"/><path class="cls-1" d="M153.66,7.37a1.75,1.75,0,0,0,1.88,1.3A4.07,4.07,0,0,0,157.75,8V9.63a5,5,0,0,1-2.47.6,3.37,3.37,0,0,1-3.68-3.37A3.34,3.34,0,0,1,155,3.45a3,3,0,0,1,3.1,3.23,4.93,4.93,0,0,1,0,.69Zm2.6-1.27A1.27,1.27,0,0,0,155,5a1.34,1.34,0,0,0-1.34,1.12Z"/><path class="cls-1" d="M163.76,9.73a3,3,0,0,1-1.65.5A3.07,3.07,0,0,1,159.06,7a3.38,3.38,0,0,1,3.43-3.52,3.21,3.21,0,0,1,1.23.23h0V0h2V10.08h-2V9.74Zm0-4.37a2.25,2.25,0,0,0-1-.25,1.6,1.6,0,0,0-1.62,1.77,1.54,1.54,0,0,0,1.54,1.71,2.06,2.06,0,0,0,1.12-.33Z"/><path class="cls-1" d="M170.54,0h2V3.88h0a3,3,0,0,1,1.59-.44,3.09,3.09,0,0,1,3.07,3.27,3.39,3.39,0,0,1-3.51,3.51,4.18,4.18,0,0,1-1.61-.33l-1.58.26Zm3,8.61a1.64,1.64,0,0,0,1.64-1.8,1.54,1.54,0,0,0-1.56-1.69,2.2,2.2,0,0,0-1.11.32V8.35A2.24,2.24,0,0,0,173.58,8.61Z"/><path class="cls-1" d="M178.42,13l1.7-3.62-2.64-5.78h2.11l.67,1.61c.29.7.57,1.39.83,2.06h0c.29-.71.58-1.4.89-2.1l.68-1.57h2L180.46,13Z"/><path class="cls-1" d="M188.65,7.4a6,6,0,0,0,3,1c.76,0,1.33-.3,1.33-1,0-.89-.9-1-2.12-1.36s-2.51-1.08-2.51-2.75S189.75.38,191.75.38a6.56,6.56,0,0,1,2.92.69V3.14a6.1,6.1,0,0,0-2.93-.92c-.71,0-1.23.26-1.23.9,0,.84.89.91,2,1.29,1.44.47,2.6,1.15,2.6,2.84,0,1.86-1.41,3-3.47,3a7.06,7.06,0,0,1-3-.7Z"/><path class="cls-1" d="M200.62,9.46a2.89,2.89,0,0,1-2,.77A2.28,2.28,0,0,1,197,9.58a2.61,2.61,0,0,1-.63-2v-4h2v3.7a1.3,1.3,0,0,0,.25.93.93.93,0,0,0,.72.29,2,2,0,0,0,1.31-.58V3.59h2v6.49h-2v-.6Z"/><path class="cls-1" d="M204.32,0h2V10.08h-2Z"/><path class="cls-1" d="M211.65,9.69a3.19,3.19,0,0,1-1.81.54,2.63,2.63,0,0,1-1.5-.42,1.77,1.77,0,0,1-.77-1.52,1.84,1.84,0,0,1,.8-1.57,3.21,3.21,0,0,1,1.82-.46,5.19,5.19,0,0,1,1.12.12V6.12a.93.93,0,0,0-.25-.68,1.52,1.52,0,0,0-1-.28,4.06,4.06,0,0,0-1.9.52V4a5.09,5.09,0,0,1,2.27-.5,3.41,3.41,0,0,1,2.17.62,2.12,2.12,0,0,1,.72,1.79v2.2c0,.31.12.52.4.52A.76.76,0,0,0,214,8.5V10a2.14,2.14,0,0,1-1,.2,1.88,1.88,0,0,1-1.4-.51Zm-.34-2.15a2.48,2.48,0,0,0-.71-.1c-.52,0-1,.16-1,.66s.37.65.83.65a1.87,1.87,0,0,0,.91-.26Z"/><path class="cls-1" d="M216.09.38a1.17,1.17,0,0,1,1.16,1.15,1.16,1.16,0,0,1-2.32,0A1.17,1.17,0,0,1,216.09.38Zm-1,3.21h2v6.49h-2Z"/><path class="cls-1" d="M227.15,6.34a1.18,1.18,0,0,0-.24-.89.88.88,0,0,0-.68-.28,2.05,2.05,0,0,0-1.28.54c0,.1,0,.2,0,.3v4.07h-2V6.34a1.25,1.25,0,0,0-.23-.89.91.91,0,0,0-.69-.28,2.1,2.1,0,0,0-1.27.53v4.38h-2V3.59h2v.58h0a3,3,0,0,1,2-.73,2.15,2.15,0,0,1,1.88.92,3.39,3.39,0,0,1,2.29-.92,2.27,2.27,0,0,1,1.67.64,2.54,2.54,0,0,1,.6,1.92v4.07h-2Z"/><path class="cls-1" d="M234.46,9.69a3.21,3.21,0,0,1-1.81.54,2.66,2.66,0,0,1-1.51-.42,1.79,1.79,0,0,1-.76-1.52,1.86,1.86,0,0,1,.79-1.57A3.23,3.23,0,0,1,233,6.26a5.13,5.13,0,0,1,1.12.12V6.12a.89.89,0,0,0-.25-.68,1.49,1.49,0,0,0-1-.28,4,4,0,0,0-1.9.52V4a5.09,5.09,0,0,1,2.27-.5,3.36,3.36,0,0,1,2.16.62,2.13,2.13,0,0,1,.73,1.79v2.2c0,.31.12.52.4.52a.84.84,0,0,0,.33-.08V10a2.22,2.22,0,0,1-1,.2,1.9,1.9,0,0,1-1.4-.51Zm-.35-2.15a2.48,2.48,0,0,0-.71-.1c-.51,0-1,.16-1,.66s.37.65.83.65a1.81,1.81,0,0,0,.91-.26Z"/><path class="cls-1" d="M237.89,3.59h2v.59l0,0a3.17,3.17,0,0,1,2-.75,2.35,2.35,0,0,1,1.71.65A2.65,2.65,0,0,1,244.17,6v4.05h-2V6.36a1.28,1.28,0,0,0-.23-.91.84.84,0,0,0-.68-.28,2.33,2.33,0,0,0-1.36.54v4.37h-2Z"/><path class="cls-1" d="M252,.53h2L258,10.08H255.7l-.76-2h-3.86l-.78,2h-2.15Zm-.3,5.9h2.57l-.39-1.07c-.28-.75-.62-1.7-.87-2.43h0c-.25.73-.59,1.68-.9,2.48Z"/><path class="cls-1" d="M267.22,6.34a1.18,1.18,0,0,0-.24-.89.9.9,0,0,0-.69-.28,2.08,2.08,0,0,0-1.28.54,1.51,1.51,0,0,1,0,.3v4.07h-2V6.34a1.25,1.25,0,0,0-.24-.89.88.88,0,0,0-.69-.28,2.08,2.08,0,0,0-1.26.53v4.38h-2V3.59h2v.58h0a3,3,0,0,1,1.95-.73,2.17,2.17,0,0,1,1.89.92A3.36,3.36,0,0,1,267,3.45a2.28,2.28,0,0,1,1.68.64A2.54,2.54,0,0,1,269.22,6v4.07h-2Z"/><path class="cls-1" d="M270.86,0h2V3.88h0a3,3,0,0,1,1.59-.44,3.1,3.1,0,0,1,3.07,3.27,3.39,3.39,0,0,1-3.51,3.51,4.18,4.18,0,0,1-1.61-.33l-1.58.26Zm3,8.61a1.64,1.64,0,0,0,1.64-1.8A1.54,1.54,0,0,0,274,5.12a2.2,2.2,0,0,0-1.11.32V8.35A2.21,2.21,0,0,0,273.9,8.61Z"/><path class="cls-1" d="M283.14,9.46a2.89,2.89,0,0,1-2,.77,2.3,2.3,0,0,1-1.69-.65,2.65,2.65,0,0,1-.62-2v-4h2v3.7a1.3,1.3,0,0,0,.25.93.92.92,0,0,0,.71.29,2,2,0,0,0,1.32-.58V3.59h2v6.49h-2v-.6Z"/><path class="cls-1" d="M286.66,7.93a5.52,5.52,0,0,0,2.56.75c.55,0,.88-.14.88-.5s-.72-.45-1.7-.7c-1.23-.3-1.95-.81-1.95-1.88,0-1.38,1.22-2.15,2.84-2.15a6,6,0,0,1,2.48.51V5.69a5.45,5.45,0,0,0-2.45-.7c-.52,0-.84.16-.84.46,0,.48.7.44,1.66.67,1.24.31,2,.78,2,1.91,0,1.42-1.26,2.2-2.92,2.2a6.2,6.2,0,0,1-2.56-.54Z"/><path class="cls-1" d="M297,9.69a3.19,3.19,0,0,1-1.81.54,2.63,2.63,0,0,1-1.5-.42,1.77,1.77,0,0,1-.77-1.52,1.84,1.84,0,0,1,.8-1.57,3.21,3.21,0,0,1,1.82-.46,5.19,5.19,0,0,1,1.12.12V6.12a.93.93,0,0,0-.25-.68,1.51,1.51,0,0,0-1-.28,4,4,0,0,0-1.9.52V4a5,5,0,0,1,2.26-.5,3.37,3.37,0,0,1,2.17.62,2.13,2.13,0,0,1,.73,1.79v2.2c0,.31.11.52.39.52a.76.76,0,0,0,.33-.08V10a2.14,2.14,0,0,1-1,.2,1.9,1.9,0,0,1-1.4-.51Zm-.34-2.15a2.48,2.48,0,0,0-.71-.1c-.52,0-1,.16-1,.66s.37.65.83.65a1.87,1.87,0,0,0,.91-.26Z"/><path class="cls-1" d="M301.46.38a1.17,1.17,0,0,1,1.16,1.15,1.16,1.16,0,0,1-2.32,0A1.17,1.17,0,0,1,301.46.38Zm-1,3.21h2v6.49h-2Z"/><path class="cls-1" d="M308.47,9.73a2.93,2.93,0,0,1-1.65.5A3.07,3.07,0,0,1,303.77,7a3.38,3.38,0,0,1,3.43-3.52,3.17,3.17,0,0,1,1.23.23h0V0h2V10.08h-2V9.74Zm0-4.37a2.28,2.28,0,0,0-1-.25,1.61,1.61,0,0,0-1.63,1.77,1.55,1.55,0,0,0,1.55,1.71,2.08,2.08,0,0,0,1.12-.33Z"/><path class="cls-1" d="M313.13.38a1.17,1.17,0,0,1,1.17,1.15,1.17,1.17,0,0,1-2.33,0A1.17,1.17,0,0,1,313.13.38Zm-1,3.21h2v6.49h-2Z"/></g></g></svg>